HIERARCHY
ROOT __0
{
	OFFSET 0.0 0.0 0.0
	CHANNELS 0
	JOINT Bone.left
	{
		OFFSET 0.000000 0.000000 0.000000
		CHANNELS 6 Xposition Yposition Zposition Xrotation Yrotation Zrotation
		End Site
		{
			OFFSET 0.000000 0.000000 1.000000
		}
	}
	JOINT Bone.UP.COLLIDER
	{
		OFFSET 0.000000 0.000000 0.000000
		CHANNELS 6 Xposition Yposition Zposition Xrotation Yrotation Zrotation
		End Site
		{
			OFFSET 0.000000 0.000000 1.000000
		}
	}
	JOINT Bone.right
	{
		OFFSET 0.000000 0.000000 0.000000
		CHANNELS 6 Xposition Yposition Zposition Xrotation Yrotation Zrotation
		End Site
		{
			OFFSET 0.000000 0.000000 1.000000
		}
	}
}
MOTION
Frames: 15
Frame Time: 0.041667
2.820000 0.100000 0.000000 -0.000000 0.000000 -0.000000 0.000000 0.000000 0.000000 -0.000000 0.000000 -0.000000 -2.798016 0.100000 -0.000000 -0.000000 0.000000 -0.000000 
2.874898 0.100000 0.000000 -0.000000 0.000000 -0.000000 0.000000 0.000000 0.000000 -0.000000 0.000000 -0.000000 -2.833080 0.100000 -0.000000 -0.000000 0.000000 -0.000000 
3.028614 0.100000 0.000000 -0.000000 0.000000 -0.000000 0.000000 0.000000 0.000000 -0.000000 0.000000 -0.000000 -2.963369 0.100000 -0.000000 -0.000000 0.000000 -0.000000 
3.264677 0.100000 0.000000 -0.000000 0.000000 -0.000000 0.000000 0.000000 0.000000 -0.000000 0.000000 -0.000000 -3.183660 0.001897 -0.000000 -0.000000 0.000000 -0.000000 
3.566618 0.100000 0.000000 -0.000000 0.000000 -0.000000 0.000000 0.000000 0.000000 -0.000000 0.000000 -0.000000 -3.476476 0.029622 -0.000000 -0.000000 0.000000 -0.000000 
3.917968 0.100000 0.000000 -0.000000 0.000000 -0.000000 0.000000 0.000000 0.000000 -0.000000 0.000000 -0.000000 -3.824343 0.062560 -0.000000 -0.000000 0.000000 -0.000000 
4.302256 0.100000 0.000000 -0.000000 0.000000 -0.000000 0.000000 0.000000 0.000000 -0.000000 0.000000 -0.000000 -4.209785 0.099057 -0.000000 -0.000000 0.000000 -0.000000 
4.703015 0.100000 0.000000 -0.000000 0.000000 -0.000000 0.000000 0.000000 0.127879 -0.000000 0.000000 -0.000000 -4.615328 0.037456 -0.000000 -0.000000 0.000000 -0.000000 
5.103773 0.100000 0.000000 -0.000000 0.000000 -0.000000 0.000000 0.000000 0.898599 -0.000000 0.000000 -0.000000 -5.023495 0.076104 -0.000000 -0.000000 0.000000 -0.000000 
5.488062 0.100000 0.000000 -0.000000 0.000000 -0.000000 0.000000 0.000000 2.268967 -0.000000 0.000000 -0.000000 -5.416812 0.013346 -0.000000 -0.000000 0.000000 -0.000000 
5.839412 0.100000 0.000000 -0.000000 0.000000 -0.000000 0.000000 0.000000 3.977202 -0.000000 0.000000 -0.000000 -5.777804 0.047527 -0.000000 -0.000000 0.000000 -0.000000 
6.141353 0.100000 0.000000 -0.000000 0.000000 -0.000000 0.000000 0.000000 5.761522 -0.000000 0.000000 -0.000000 -6.088996 0.076992 -0.000000 -0.000000 0.000000 -0.000000 
6.377416 0.100000 0.000000 -0.000000 0.000000 -0.000000 0.000000 0.000000 7.360146 -0.000000 0.000000 -0.000000 -6.332911 0.000088 -0.000000 -0.000000 0.000000 -0.000000 
6.531131 0.100000 0.000000 -0.000000 0.000000 -0.000000 0.000000 0.000000 8.511293 -0.000000 0.000000 -0.000000 -6.492074 0.015158 -0.000000 -0.000000 0.000000 -0.000000 
6.586030 0.100000 0.000000 -0.000000 0.000000 -0.000000 0.000000 0.000000 8.953183 -0.000000 0.000000 -0.000000 -6.549013 0.020550 0.000000 -0.000000 0.000000 -0.000000 
